<svg width="48" height="48" viewBox="0 0 48 48" fill="none" xmlns="http://www.w3.org/2000/svg">
  <rect width="48" height="48" rx="12" fill="#0077FF"/>
  <path d="M35 19.6667C35 18.9594 34.7191 18.2811 34.219 17.781C33.7189 17.2809 33.0406 17 32.3333 17H29.6667V15C29.6667 14.6464 29.5262 14.3072 29.2762 14.0572C29.0261 13.8071 28.687 13.6667 28.3333 13.6667C27.9797 13.6667 27.6406 13.8071 27.3905 14.0572C27.1405 14.3072 27 14.6464 27 15V17H21V15C21 14.6464 20.8595 14.3072 20.6095 14.0572C20.3594 13.8071 20.0203 13.6667 19.6667 13.6667C19.313 13.6667 18.9739 13.8071 18.7239 14.0572C18.4738 14.3072 18.3333 14.6464 18.3333 15V17H15.6667C14.9594 17 14.2811 17.2809 13.781 17.781C13.2809 18.2811 13 18.9594 13 19.6667V21.3333H35V19.6667Z" fill="white"/>
  <path d="M13 23V32.3333C13 33.0406 13.2809 33.7189 13.781 34.219C14.2811 34.7191 14.9594 35 15.6667 35H32.3333C33.0406 35 33.7189 34.7191 34.219 34.219C34.7191 33.7189 35 33.0406 35 32.3333V23H13ZM24.6 30.8867L24.1467 31.34C24.0222 31.4672 23.864 31.5553 23.6915 31.5944C23.519 31.6336 23.3393 31.6223 23.1733 31.5617C23.0073 31.5011 22.8614 31.3939 22.7518 31.2524C22.6421 31.1109 22.573 30.9411 22.5533 30.7617C22.5267 30.583 22.5303 30.4012 22.5641 30.224C22.5979 30.0468 22.6613 29.8773 22.7507 29.725L24.8507 26.225C24.9396 26.0741 25.0618 25.9461 25.2081 25.8504C25.3543 25.7547 25.5208 25.6937 25.6952 25.6715C25.8697 25.6494 26.0471 25.6666 26.2133 25.7221C26.3795 25.7776 26.5299 25.8699 26.6533 25.9917L27.1067 26.445C27.3582 26.6973 27.4993 27.037 27.4993 27.3917C27.4993 27.7463 27.3582 28.086 27.1067 28.3383L24.6 30.8867ZM19.2 30.8867L18.7467 31.34C18.6222 31.4672 18.464 31.5553 18.2915 31.5944C18.119 31.6336 17.9393 31.6223 17.7733 31.5617C17.6073 31.5011 17.4614 31.3939 17.3518 31.2524C17.2421 31.1109 17.173 30.9411 17.1533 30.7617C17.1267 30.583 17.1303 30.4012 17.1641 30.224C17.1979 30.0468 17.2613 29.8773 17.3507 29.725L19.4507 26.225C19.5396 26.0741 19.6618 25.9461 19.8081 25.8504C19.9543 25.7547 20.1208 25.6937 20.2952 25.6715C20.4697 25.6494 20.6471 25.6666 20.8133 25.7221C20.9795 25.7776 21.1299 25.8699 21.2533 25.9917L21.7067 26.445C21.9582 26.6973 22.0993 27.037 22.0993 27.3917C22.0993 27.7463 21.9582 28.086 21.7067 28.3383L19.2 30.8867Z" fill="white"/>
</svg>